<?xml version="1.0" encoding="UTF-8" standalone="no"?>
<!DOCTYPE svg PUBLIC "-//W3C//DTD SVG 1.1//EN"
 "http://www.w3.org/Graphics/SVG/1.1/DTD/svg11.dtd">
<!-- Generated by graphviz version 2.28.0 (20110507.0327)
 -->
<!-- Title: G Pages: 1 -->
<svg width="450pt" height="1030pt"
 viewBox="0.00 0.00 450.00 1030.00" xmlns="http://www.w3.org/2000/svg" xmlns:xlink="http://www.w3.org/1999/xlink">
<g id="graph1" class="graph" transform="scale(1 1) rotate(0) translate(4 1026)">
<title>G</title>
<polygon fill="white" stroke="white" points="-4,5 -4,-1026 447,-1026 447,5 -4,5"/>
<g id="graph2" class="cluster"><title>cluster_default</title>
<polyline fill="none" stroke="none" points="20,-44 422,-44 "/>
<path fill="none" stroke="none" d="M422,-44C428,-44 434,-50 434,-56"/>
<polyline fill="none" stroke="none" points="434,-56 434,-1002 "/>
<path fill="none" stroke="none" d="M434,-1002C434,-1008 428,-1014 422,-1014"/>
<polyline fill="none" stroke="none" points="422,-1014 20,-1014 "/>
<path fill="none" stroke="none" d="M20,-1014C14,-1014 8,-1008 8,-1002"/>
<polyline fill="none" stroke="none" points="8,-1002 8,-56 "/>
<path fill="none" stroke="none" d="M8,-56C8,-50 14,-44 20,-44"/>
</g>
<!-- \\AbstractDao -->
<g id="node2" class="node"><title>\\AbstractDao</title>
<a xlink:href="db_dao_AbstractDao.html" xlink:title="«abstract»&lt;br/&gt;AbstractDao" target="_parent">
<polygon fill="none" stroke="black" points="128,-952 36,-952 36,-916 128,-916 128,-952"/>
<text text-anchor="start" x="48" y="-937.7" font-family="Courier New" font-size="11.00">«abstract»</text>
<text text-anchor="start" x="44.5" y="-926.7" font-family="Courier New" font-size="11.00">AbstractDao</text>
</a>
</g>
<!-- \\CurrencyDao -->
<g id="node3" class="node"><title>\\CurrencyDao</title>
<a xlink:href="db_dao_CurrencyDao.html" xlink:title="CurrencyDao" target="_parent">
<polygon fill="none" stroke="black" points="127.5,-1006 36.5,-1006 36.5,-970 127.5,-970 127.5,-1006"/>
<text text-anchor="middle" x="82" y="-985.2" font-family="Courier New" font-size="11.00">CurrencyDao</text>
</a>
</g>
<!-- \\CurrencyDaoImpl -->
<g id="node4" class="node"><title>\\CurrencyDaoImpl</title>
<a xlink:href="db_dao_CurrencyDaoImpl.html" xlink:title="CurrencyDaoImpl" target="_parent">
<polygon fill="none" stroke="black" points="389,-1006 271,-1006 271,-970 389,-970 389,-1006"/>
<text text-anchor="middle" x="330" y="-985.2" font-family="Courier New" font-size="11.00">CurrencyDaoImpl</text>
</a>
</g>
<!-- \\CurrencyDaoImpl&#45;&gt;\\AbstractDao -->
<g id="edge3" class="edge"><title>\\CurrencyDaoImpl&#45;&gt;\\AbstractDao</title>
<path fill="none" stroke="black" d="M270.701,-975.203C230.575,-966.395 177.607,-954.767 138.172,-946.111"/>
<polygon fill="none" stroke="black" points="138.716,-942.647 128.199,-943.922 137.216,-949.484 138.716,-942.647"/>
</g>
<!-- \\CurrencyDaoImpl&#45;&gt;\\CurrencyDao -->
<g id="edge15" class="edge"><title>\\CurrencyDaoImpl&#45;&gt;\\CurrencyDao</title>
<path fill="none" stroke="black" stroke-dasharray="1,5" d="M270.701,-988C230.53,-988 177.487,-988 138.038,-988"/>
<polygon fill="none" stroke="black" points="137.807,-984.5 127.807,-988 137.807,-991.5 137.807,-984.5"/>
</g>
<!-- \\DataSource -->
<g id="node5" class="node"><title>\\DataSource</title>
<a xlink:href="db_dao_DataSource.html" xlink:title="DataSource" target="_parent">
<polygon fill="none" stroke="black" points="372,-952 288,-952 288,-916 372,-916 372,-952"/>
<text text-anchor="middle" x="330" y="-931.2" font-family="Courier New" font-size="11.00">DataSource</text>
</a>
</g>
<!-- \\ExchangeDao -->
<g id="node6" class="node"><title>\\ExchangeDao</title>
<a xlink:href="db_dao_ExchangeDao.html" xlink:title="ExchangeDao" target="_parent">
<polygon fill="none" stroke="black" points="127.5,-898 36.5,-898 36.5,-862 127.5,-862 127.5,-898"/>
<text text-anchor="middle" x="82" y="-877.2" font-family="Courier New" font-size="11.00">ExchangeDao</text>
</a>
</g>
<!-- \\ExchangeDaoImpl -->
<g id="node7" class="node"><title>\\ExchangeDaoImpl</title>
<a xlink:href="db_dao_ExchangeDaoImpl.html" xlink:title="ExchangeDaoImpl" target="_parent">
<polygon fill="none" stroke="black" points="389,-898 271,-898 271,-862 389,-862 389,-898"/>
<text text-anchor="middle" x="330" y="-877.2" font-family="Courier New" font-size="11.00">ExchangeDaoImpl</text>
</a>
</g>
<!-- \\ExchangeDaoImpl&#45;&gt;\\AbstractDao -->
<g id="edge5" class="edge"><title>\\ExchangeDaoImpl&#45;&gt;\\AbstractDao</title>
<path fill="none" stroke="black" d="M270.701,-892.797C230.575,-901.605 177.607,-913.233 138.172,-921.889"/>
<polygon fill="none" stroke="black" points="137.216,-918.516 128.199,-924.078 138.716,-925.353 137.216,-918.516"/>
</g>
<!-- \\ExchangeDaoImpl&#45;&gt;\\ExchangeDao -->
<g id="edge17" class="edge"><title>\\ExchangeDaoImpl&#45;&gt;\\ExchangeDao</title>
<path fill="none" stroke="black" stroke-dasharray="1,5" d="M270.701,-880C230.53,-880 177.487,-880 138.038,-880"/>
<polygon fill="none" stroke="black" points="137.807,-876.5 127.807,-880 137.807,-883.5 137.807,-876.5"/>
</g>
<!-- \\ConversionRequest -->
<g id="node8" class="node"><title>\\ConversionRequest</title>
<a xlink:href="db_domain_ConversionRequest.html" xlink:title="ConversionRequest" target="_parent">
<polygon fill="none" stroke="black" points="395.5,-844 264.5,-844 264.5,-808 395.5,-808 395.5,-844"/>
<text text-anchor="middle" x="330" y="-823.2" font-family="Courier New" font-size="11.00">ConversionRequest</text>
</a>
</g>
<!-- \\ConversionResponse -->
<g id="node9" class="node"><title>\\ConversionResponse</title>
<a xlink:href="db_domain_ConversionResponse.html" xlink:title="ConversionResponse" target="_parent">
<polygon fill="none" stroke="black" points="399,-790 261,-790 261,-754 399,-754 399,-790"/>
<text text-anchor="middle" x="330" y="-769.2" font-family="Courier New" font-size="11.00">ConversionResponse</text>
</a>
</g>
<!-- \\CurrencyInfo -->
<g id="node10" class="node"><title>\\CurrencyInfo</title>
<a xlink:href="db_domain_CurrencyInfo.html" xlink:title="CurrencyInfo" target="_parent">
<polygon fill="none" stroke="black" points="379,-736 281,-736 281,-700 379,-700 379,-736"/>
<text text-anchor="middle" x="330" y="-715.2" font-family="Courier New" font-size="11.00">CurrencyInfo</text>
</a>
</g>
<!-- \\ConfigErrorCodeException -->
<g id="node11" class="node"><title>\\ConfigErrorCodeException</title>
<a xlink:href="db_exceptions_ConfigErrorCodeException.html" xlink:title="ConfigErrorCodeException" target="_parent">
<polygon fill="none" stroke="black" points="419.5,-88 240.5,-88 240.5,-52 419.5,-52 419.5,-88"/>
<text text-anchor="middle" x="330" y="-67.2" font-family="Courier New" font-size="11.00">ConfigErrorCodeException</text>
</a>
</g>
<!-- \\RuntimeException -->
<g id="node30" class="node"><title>\\RuntimeException</title>
<ellipse fill="none" stroke="black" cx="82" cy="-18" rx="79.8859" ry="18"/>
<text text-anchor="middle" x="82" y="-14.3" font-family="Times New Roman,serif" font-size="14.00" fill="gray">\RuntimeException</text>
</g>
<!-- \\ConfigErrorCodeException&#45;&gt;\\RuntimeException -->
<g id="edge7" class="edge"><title>\\ConfigErrorCodeException&#45;&gt;\\RuntimeException</title>
<path fill="none" stroke="black" d="M243.652,-51.9589C213.238,-45.5301 179.427,-38.3829 150.698,-32.3101"/>
<polygon fill="none" stroke="black" points="151.27,-28.8538 140.762,-30.2099 149.822,-35.7024 151.27,-28.8538"/>
</g>
<!-- \\AutoLoader -->
<g id="node12" class="node"><title>\\AutoLoader</title>
<a xlink:href="db_handlers_AutoLoader.html" xlink:title="AutoLoader" target="_parent">
<polygon fill="none" stroke="black" points="372,-628 288,-628 288,-592 372,-592 372,-628"/>
<text text-anchor="middle" x="330" y="-607.2" font-family="Courier New" font-size="11.00">AutoLoader</text>
</a>
</g>
<!-- \\ErrorHandler -->
<g id="node13" class="node"><title>\\ErrorHandler</title>
<a xlink:href="db_handlers_ErrorHandler.html" xlink:title="ErrorHandler" target="_parent">
<polygon fill="none" stroke="black" points="379,-574 281,-574 281,-538 379,-538 379,-574"/>
<text text-anchor="middle" x="330" y="-553.2" font-family="Courier New" font-size="11.00">ErrorHandler</text>
</a>
</g>
<!-- \\ConfigHolder -->
<g id="node14" class="node"><title>\\ConfigHolder</title>
<a xlink:href="db_service_ConfigHolder.html" xlink:title="ConfigHolder" target="_parent">
<polygon fill="none" stroke="black" points="379,-520 281,-520 281,-484 379,-484 379,-520"/>
<text text-anchor="middle" x="330" y="-499.2" font-family="Courier New" font-size="11.00">ConfigHolder</text>
</a>
</g>
<!-- \\ConversionService -->
<g id="node15" class="node"><title>\\ConversionService</title>
<a xlink:href="db_service_ConversionService.html" xlink:title="ConversionService" target="_parent">
<polygon fill="none" stroke="black" points="147.5,-682 16.5,-682 16.5,-646 147.5,-646 147.5,-682"/>
<text text-anchor="middle" x="82" y="-661.2" font-family="Courier New" font-size="11.00">ConversionService</text>
</a>
</g>
<!-- \\ConversionServiceImpl -->
<g id="node16" class="node"><title>\\ConversionServiceImpl</title>
<a xlink:href="db_service_ConversionServiceImpl.html" xlink:title="ConversionServiceImpl" target="_parent">
<polygon fill="none" stroke="black" points="409,-682 251,-682 251,-646 409,-646 409,-682"/>
<text text-anchor="middle" x="330" y="-661.2" font-family="Courier New" font-size="11.00">ConversionServiceImpl</text>
</a>
</g>
<!-- \\ConversionServiceImpl&#45;&gt;\\ConversionService -->
<g id="edge19" class="edge"><title>\\ConversionServiceImpl&#45;&gt;\\ConversionService</title>
<path fill="none" stroke="black" stroke-dasharray="1,5" d="M250.826,-664C221.125,-664 187.385,-664 157.986,-664"/>
<polygon fill="none" stroke="black" points="157.782,-660.5 147.782,-664 157.782,-667.5 157.782,-660.5"/>
</g>
<!-- \\CurrencyXMLHelper -->
<g id="node17" class="node"><title>\\CurrencyXMLHelper</title>
<a xlink:href="db_service_CurrencyXMLHelper.html" xlink:title="CurrencyXMLHelper" target="_parent">
<polygon fill="none" stroke="black" points="395.5,-412 264.5,-412 264.5,-376 395.5,-376 395.5,-412"/>
<text text-anchor="middle" x="330" y="-391.2" font-family="Courier New" font-size="11.00">CurrencyXMLHelper</text>
</a>
</g>
<!-- \\RatesService -->
<g id="node18" class="node"><title>\\RatesService</title>
<a xlink:href="db_service_RatesService.html" xlink:title="RatesService" target="_parent">
<polygon fill="none" stroke="black" points="131,-466 33,-466 33,-430 131,-430 131,-466"/>
<text text-anchor="middle" x="82" y="-445.2" font-family="Courier New" font-size="11.00">RatesService</text>
</a>
</g>
<!-- \\RatesServiceImpl -->
<g id="node19" class="node"><title>\\RatesServiceImpl</title>
<a xlink:href="db_service_RatesServiceImpl.html" xlink:title="RatesServiceImpl" target="_parent">
<polygon fill="none" stroke="black" points="392.5,-466 267.5,-466 267.5,-430 392.5,-430 392.5,-466"/>
<text text-anchor="middle" x="330" y="-445.2" font-family="Courier New" font-size="11.00">RatesServiceImpl</text>
</a>
</g>
<!-- \\RatesServiceImpl&#45;&gt;\\RatesService -->
<g id="edge21" class="edge"><title>\\RatesServiceImpl&#45;&gt;\\RatesService</title>
<path fill="none" stroke="black" stroke-dasharray="1,5" d="M267.241,-448C228.734,-448 179.475,-448 141.58,-448"/>
<polygon fill="none" stroke="black" points="141.212,-444.5 131.212,-448 141.212,-451.5 141.212,-444.5"/>
</g>
<!-- \\ResourceHolder -->
<g id="node20" class="node"><title>\\ResourceHolder</title>
<a xlink:href="db_service_ResourceHolder.html" xlink:title="ResourceHolder" target="_parent">
<polygon fill="none" stroke="black" points="385.5,-304 274.5,-304 274.5,-268 385.5,-268 385.5,-304"/>
<text text-anchor="middle" x="330" y="-283.2" font-family="Courier New" font-size="11.00">ResourceHolder</text>
</a>
</g>
<!-- \\AbstractWsao -->
<g id="node21" class="node"><title>\\AbstractWsao</title>
<a xlink:href="db_wsao_AbstractWsao.html" xlink:title="AbstractWsao" target="_parent">
<polygon fill="none" stroke="black" points="131,-196 33,-196 33,-160 131,-160 131,-196"/>
<text text-anchor="middle" x="82" y="-175.2" font-family="Courier New" font-size="11.00">AbstractWsao</text>
</a>
</g>
<!-- \\CoinmillWsaoImpl -->
<g id="node22" class="node"><title>\\CoinmillWsaoImpl</title>
<a xlink:href="db_wsao_CoinmillWsaoImpl.html" xlink:title="CoinmillWsaoImpl" target="_parent">
<polygon fill="none" stroke="black" points="392.5,-142 267.5,-142 267.5,-106 392.5,-106 392.5,-142"/>
<text text-anchor="middle" x="330" y="-121.2" font-family="Courier New" font-size="11.00">CoinmillWsaoImpl</text>
</a>
</g>
<!-- \\CoinmillWsaoImpl&#45;&gt;\\AbstractWsao -->
<g id="edge9" class="edge"><title>\\CoinmillWsaoImpl&#45;&gt;\\AbstractWsao</title>
<path fill="none" stroke="black" d="M267.241,-137.557C228.569,-146.046 179.053,-156.915 141.095,-165.247"/>
<polygon fill="none" stroke="black" points="140.229,-161.854 131.212,-167.417 141.73,-168.691 140.229,-161.854"/>
</g>
<!-- \\ExchangeWsao -->
<g id="node23" class="node"><title>\\ExchangeWsao</title>
<a xlink:href="db_wsao_ExchangeWsao.html" xlink:title="ExchangeWsao" target="_parent">
<polygon fill="none" stroke="black" points="131,-250 33,-250 33,-214 131,-214 131,-250"/>
<text text-anchor="middle" x="82" y="-229.2" font-family="Courier New" font-size="11.00">ExchangeWsao</text>
</a>
</g>
<!-- \\CoinmillWsaoImpl&#45;&gt;\\ExchangeWsao -->
<g id="edge23" class="edge"><title>\\CoinmillWsaoImpl&#45;&gt;\\ExchangeWsao</title>
<path fill="none" stroke="black" stroke-dasharray="1,5" d="M267.449,-137.919C256.046,-141.489 244.446,-145.822 234,-151 198.162,-168.765 197.361,-186.302 162,-205 155.393,-208.494 148.243,-211.675 141.036,-214.529"/>
<polygon fill="none" stroke="black" points="139.351,-211.423 131.22,-218.215 141.812,-217.976 139.351,-211.423"/>
</g>
<!-- \\ExchangeWsaoCollectionImpl -->
<g id="node24" class="node"><title>\\ExchangeWsaoCollectionImpl</title>
<a xlink:href="db_wsao_ExchangeWsaoCollectionImpl.html" xlink:title="ExchangeWsaoCollectionImpl" target="_parent">
<polygon fill="none" stroke="black" points="426,-358 234,-358 234,-322 426,-322 426,-358"/>
<text text-anchor="middle" x="330" y="-337.2" font-family="Courier New" font-size="11.00">ExchangeWsaoCollectionImpl</text>
</a>
</g>
<!-- \\ExchangeWsaoCollectionImpl&#45;&gt;\\ExchangeWsao -->
<g id="edge25" class="edge"><title>\\ExchangeWsaoCollectionImpl&#45;&gt;\\ExchangeWsao</title>
<path fill="none" stroke="black" stroke-dasharray="1,5" d="M258.893,-321.936C250.413,-319.207 241.947,-316.217 234,-313 194.016,-296.815 150.883,-272.978 120.996,-255.35"/>
<polygon fill="none" stroke="black" points="122.547,-252.201 112.164,-250.094 118.967,-258.216 122.547,-252.201"/>
</g>
<!-- \\FXExchangeWsaoImpl -->
<g id="node25" class="node"><title>\\FXExchangeWsaoImpl</title>
<a xlink:href="db_wsao_FXExchangeWsaoImpl.html" xlink:title="FXExchangeWsaoImpl" target="_parent">
<polygon fill="none" stroke="black" points="399,-250 261,-250 261,-214 399,-214 399,-250"/>
<text text-anchor="middle" x="330" y="-229.2" font-family="Courier New" font-size="11.00">FXExchangeWsaoImpl</text>
</a>
</g>
<!-- \\FXExchangeWsaoImpl&#45;&gt;\\AbstractWsao -->
<g id="edge11" class="edge"><title>\\FXExchangeWsaoImpl&#45;&gt;\\AbstractWsao</title>
<path fill="none" stroke="black" d="M260.802,-217.03C223.11,-208.756 176.788,-198.588 140.874,-190.704"/>
<polygon fill="none" stroke="black" points="141.555,-187.27 131.037,-188.545 140.054,-194.107 141.555,-187.27"/>
</g>
<!-- \\FXExchangeWsaoImpl&#45;&gt;\\ExchangeWsao -->
<g id="edge27" class="edge"><title>\\FXExchangeWsaoImpl&#45;&gt;\\ExchangeWsao</title>
<path fill="none" stroke="black" stroke-dasharray="1,5" d="M260.802,-232C223.271,-232 177.183,-232 141.335,-232"/>
<polygon fill="none" stroke="black" points="141.037,-228.5 131.037,-232 141.037,-235.5 141.037,-228.5"/>
</g>
<!-- \\YahooExchangeWsaoImpl -->
<g id="node26" class="node"><title>\\YahooExchangeWsaoImpl</title>
<a xlink:href="db_wsao_YahooExchangeWsaoImpl.html" xlink:title="YahooExchangeWsaoImpl" target="_parent">
<polygon fill="none" stroke="black" points="409,-196 251,-196 251,-160 409,-160 409,-196"/>
<text text-anchor="middle" x="330" y="-175.2" font-family="Courier New" font-size="11.00">YahooExchangeWsaoImpl</text>
</a>
</g>
<!-- \\YahooExchangeWsaoImpl&#45;&gt;\\AbstractWsao -->
<g id="edge13" class="edge"><title>\\YahooExchangeWsaoImpl&#45;&gt;\\AbstractWsao</title>
<path fill="none" stroke="black" d="M250.826,-178C215.407,-178 174.244,-178 141.548,-178"/>
<polygon fill="none" stroke="black" points="141.248,-174.5 131.248,-178 141.248,-181.5 141.248,-174.5"/>
</g>
<!-- \\YahooExchangeWsaoImpl&#45;&gt;\\ExchangeWsao -->
<g id="edge29" class="edge"><title>\\YahooExchangeWsaoImpl&#45;&gt;\\ExchangeWsao</title>
<path fill="none" stroke="black" stroke-dasharray="1,5" d="M250.826,-195.16C215.254,-202.969 173.887,-212.049 141.124,-219.241"/>
<polygon fill="none" stroke="black" points="140.265,-215.846 131.248,-221.409 141.766,-222.683 140.265,-215.846"/>
</g>
</g>
</svg>
